<svg width="119" height="21" viewBox="0 0 119 21" fill="none" xmlns="http://www.w3.org/2000/svg">
<path d="M6.69601 19.845L5.50272e-06 0.405H2.06551L7.99201 17.5905L13.959 0.405H16.0245L9.32851 19.845H6.69601ZM20.7499 19.845V0.405H32.8999V2.3085H22.7344V9.0315H31.2799V10.935H22.7344V17.9415H32.8999V19.845H20.7499ZM39.1184 19.845V0.405H41.1029V17.9415H50.3369V19.845H39.1184ZM58.1173 19.845L51.4213 0.405H53.4868L59.4133 17.5905L65.3803 0.405H67.4458L60.7498 19.845H58.1173ZM72.4412 19.845V0.405H74.4257V19.845H72.4412ZM89.0435 20.25C87.1085 20.25 85.475 19.8225 84.143 18.9675C82.811 18.1035 81.803 16.911 81.119 15.39C80.435 13.869 80.093 12.114 80.093 10.125C80.093 8.136 80.435 6.381 81.119 4.86C81.803 3.339 82.811 2.151 84.143 1.296C85.475 0.432001 87.1085 8.34465e-07 89.0435 8.34465e-07C90.9875 8.34465e-07 92.621 0.432001 93.944 1.296C95.276 2.151 96.284 3.339 96.968 4.86C97.661 6.381 98.0075 8.136 98.0075 10.125C98.0075 12.114 97.661 13.869 96.968 15.39C96.284 16.911 95.276 18.1035 93.944 18.9675C92.621 19.8225 90.9875 20.25 89.0435 20.25ZM89.0435 18.3465C90.5645 18.3465 91.8335 18 92.8505 17.307C93.8675 16.614 94.628 15.651 95.132 14.418C95.645 13.176 95.9015 11.745 95.9015 10.125C95.9015 8.505 95.645 7.0785 95.132 5.8455C94.628 4.6125 93.8675 3.6495 92.8505 2.9565C91.8335 2.2635 90.5645 1.9125 89.0435 1.9035C87.5225 1.9035 86.258 2.25 85.25 2.943C84.242 3.636 83.4815 4.6035 82.9685 5.8455C82.4645 7.0785 82.208 8.505 82.199 10.125C82.19 11.745 82.4375 13.1715 82.9415 14.4045C83.4545 15.6285 84.2195 16.5915 85.2365 17.2935C86.2535 17.9865 87.5225 18.3375 89.0435 18.3465ZM103.411 19.845V0.405H105.409L116.115 16.335V0.405H118.113V19.845H116.115L105.409 3.9015V19.845H103.411Z" fill="#C3E7ED"/>
</svg>
