<svg width="100" height="100" viewBox="0 0 100 100" fill="none" xmlns="http://www.w3.org/2000/svg">
<path d="M15.0026 65V95.3334C15.0026 96.7334 16.6193 97.5 17.7026 96.6334L22.3026 92.9667C22.9026 92.4834 23.7693 92.4834 24.3693 92.9667L30.6359 97.9667C31.2359 98.45 32.1026 98.45 32.7026 97.9667L38.9693 92.9667C39.5693 92.4834 40.4359 92.4834 41.0359 92.9667L47.3026 97.9667C47.9026 98.45 48.7693 98.45 49.3693 97.9667L55.6359 92.9667C56.2359 92.4834 57.1026 92.4834 57.7026 92.9667L63.9693 97.9667C64.5693 98.45 65.4359 98.45 66.0359 97.9667L72.3026 92.9667C72.9026 92.4834 73.7693 92.4834 74.3693 92.9667L78.9693 96.6334C80.0526 97.5 81.6693 96.7334 81.6693 95.3334V8.33335C81.6693 4.65002 78.6859 1.66669 75.0026 1.66669H8.33594L15.0026 65Z" fill="#F9EAB0"/>
<path d="M8.33073 1.66669C12.0107 1.66669 14.9974 4.65335 14.9974 8.33335V65H4.9974C3.1574 65 1.66406 63.5067 1.66406 61.6667V8.33335C1.66406 4.65335 4.65073 1.66669 8.33073 1.66669Z" fill="#F3D55B"/>
<path d="M58.3359 18.3333H25.0026C24.0809 18.3333 23.3359 17.5867 23.3359 16.6667C23.3359 15.7467 24.0809 15 25.0026 15H58.3359C59.2576 15 60.0026 15.7467 60.0026 16.6667C60.0026 17.5867 59.2576 18.3333 58.3359 18.3333Z" fill="#3F5C6C"/>
<path d="M58.3359 28.3333H25.0026C24.0809 28.3333 23.3359 27.5867 23.3359 26.6667C23.3359 25.7467 24.0809 25 25.0026 25H58.3359C59.2576 25 60.0026 25.7467 60.0026 26.6667C60.0026 27.5867 59.2576 28.3333 58.3359 28.3333Z" fill="#3F5C6C"/>
<path d="M58.3307 38.3333H43.3307C42.4091 38.3333 41.6641 37.5867 41.6641 36.6667C41.6641 35.7467 42.4091 35 43.3307 35H58.3307C59.2524 35 59.9974 35.7467 59.9974 36.6667C59.9974 37.5867 59.2524 38.3333 58.3307 38.3333Z" fill="#3F5C6C"/>
<path d="M36.6693 38.3333H25.0026C24.0809 38.3333 23.3359 37.5867 23.3359 36.6667C23.3359 35.7467 24.0809 35 25.0026 35H36.6693C37.5909 35 38.3359 35.7467 38.3359 36.6667C38.3359 37.5867 37.5909 38.3333 36.6693 38.3333Z" fill="#3F5C6C"/>
<path d="M66.6693 48.3333H25.0026C24.0809 48.3333 23.3359 47.5867 23.3359 46.6667C23.3359 45.7467 24.0809 45 25.0026 45H66.6693C67.5909 45 68.3359 45.7467 68.3359 46.6667C68.3359 47.5867 67.5909 48.3333 66.6693 48.3333Z" fill="#3F5C6C"/>
<path d="M66.6667 66.6667C64.8283 66.6667 63.3333 65.1717 63.3333 63.3333C63.3333 61.495 64.8283 60 66.6667 60C68.505 60 70 61.495 70 63.3333C70 64.2533 70.745 65 71.6667 65C72.5883 65 73.3333 64.2533 73.3333 63.3333C73.3333 60.2367 71.2017 57.6483 68.3333 56.9033V56.6667C68.3333 55.7467 67.5883 55 66.6667 55C65.745 55 65 55.7467 65 56.6667V56.9033C62.1317 57.6483 60 60.2367 60 63.3333C60 67.01 62.99 70 66.6667 70C68.505 70 70 71.495 70 73.3333C70 75.1717 68.505 76.6667 66.6667 76.6667C64.8283 76.6667 63.3333 75.1717 63.3333 73.3333C63.3333 72.4133 62.5883 71.6667 61.6667 71.6667C60.745 71.6667 60 72.4133 60 73.3333C60 76.43 62.1317 79.0183 65 79.7633V80C65 80.92 65.745 81.6667 66.6667 81.6667C67.5883 81.6667 68.3333 80.92 68.3333 80V79.7633C71.2017 79.0183 73.3333 76.43 73.3333 73.3333C73.3333 69.6567 70.3433 66.6667 66.6667 66.6667Z" fill="#24AE5F"/>
<path d="M50.0026 58.3333H25.0026C24.0809 58.3333 23.3359 57.5867 23.3359 56.6667C23.3359 55.7467 24.0809 55 25.0026 55H50.0026C50.9243 55 51.6693 55.7467 51.6693 56.6667C51.6693 57.5867 50.9243 58.3333 50.0026 58.3333Z" fill="#3F5C6C"/>
<path d="M50.0026 68.3333H25.0026C24.0809 68.3333 23.3359 67.5867 23.3359 66.6667C23.3359 65.7467 24.0809 65 25.0026 65H50.0026C50.9243 65 51.6693 65.7467 51.6693 66.6667C51.6693 67.5867 50.9243 68.3333 50.0026 68.3333Z" fill="#3F5C6C"/>
<path d="M50.0026 78.3333H25.0026C24.0809 78.3333 23.3359 77.5867 23.3359 76.6667C23.3359 75.7467 24.0809 75 25.0026 75H50.0026C50.9243 75 51.6693 75.7467 51.6693 76.6667C51.6693 77.5867 50.9243 78.3333 50.0026 78.3333Z" fill="#3F5C6C"/>
<path d="M81.6667 43.3333C90.8714 43.3333 98.3333 35.8714 98.3333 26.6667C98.3333 17.4619 90.8714 10 81.6667 10C72.4619 10 65 17.4619 65 26.6667C65 35.8714 72.4619 43.3333 81.6667 43.3333Z" fill="#24AE5F"/>
<path d="M78.3311 36.6667C77.8895 36.6667 77.4661 36.4917 77.1528 36.1783L72.1528 31.1783C71.5011 30.5267 71.5011 29.4733 72.1528 28.8217C72.8045 28.17 73.8578 28.17 74.5095 28.8217L78.1745 32.4867L88.6828 18.9783C89.2495 18.2533 90.2945 18.1217 91.0211 18.685C91.7478 19.25 91.8795 20.2983 91.3128 21.0233L79.6462 36.0233C79.3528 36.4017 78.9128 36.635 78.4345 36.6633C78.3995 36.665 78.3645 36.6667 78.3311 36.6667Z" fill="#ECF0F1"/>
</svg>
